<?xml version="1.0" standalone="no"?>
<!DOCTYPE svg PUBLIC "-//W3C//DTD SVG 20010904//EN"
 "http://www.w3.org/TR/2001/REC-SVG-20010904/DTD/svg10.dtd">
<svg version="1.0" xmlns="http://www.w3.org/2000/svg"
 width="225.000000pt" height="225.000000pt" viewBox="0 0 225.000000 225.000000"
 preserveAspectRatio="xMidYMid meet">

<g transform="translate(0.000000,225.000000) scale(0.100000,-0.100000)"
fill="#000000" stroke="none">
<path d="M733 1498 l-50 -83 53 -59 c30 -33 63 -79 75 -103 28 -58 35 -154 16
-215 -8 -27 -13 -48 -11 -48 9 0 64 120 79 175 27 92 18 215 -22 296 -18 35
-45 77 -61 92 l-29 28 -50 -83z"/>
<path d="M1401 1202 c-49 -96 -64 -164 -59 -262 3 -73 9 -98 35 -151 18 -35
45 -76 60 -91 l29 -28 34 58 c19 31 42 68 52 81 18 23 17 24 -37 84 -30 33
-64 80 -76 104 -28 58 -35 154 -16 216 8 26 13 47 11 47 -2 0 -17 -26 -33 -58z"/>
</g>
</svg>
