<?xml version="1.0" standalone="no"?>
<!DOCTYPE svg PUBLIC "-//W3C//DTD SVG 20010904//EN"
 "http://www.w3.org/TR/2001/REC-SVG-20010904/DTD/svg10.dtd">
<svg version="1.0" xmlns="http://www.w3.org/2000/svg"
 width="225.000000pt" height="225.000000pt" viewBox="0 0 225.000000 225.000000"
 preserveAspectRatio="xMidYMid meet">

<g transform="translate(0.000000,225.000000) scale(0.100000,-0.100000)"
fill="#000000" stroke="none">
<path d="M949 1663 c-203 -207 -239 -256 -273 -372 -21 -70 -21 -202 0 -272
24 -82 70 -161 122 -210 l47 -44 347 350 346 350 -192 198 c-106 108 -195 197
-198 197 -3 0 -92 -89 -199 -197z"/>
<path d="M1090 883 l-191 -196 150 -151 151 -151 197 197 198 198 -150 150
c-82 82 -153 150 -156 150 -4 0 -93 -89 -199 -197z"/>
</g>
</svg>
